<svg width="258" height="162" viewBox="0 0 258 162" fill="none" xmlns="http://www.w3.org/2000/svg">
<rect width="258" height="162" fill="#D9D9D9"/>
<rect width="58" height="58" transform="translate(100 52)" fill="#D9D9D9"/>
<path d="M154.375 95.5C154.375 96.4614 153.993 97.3834 153.313 98.0633C152.633 98.7431 151.711 99.125 150.75 99.125H107.25C106.289 99.125 105.367 98.7431 104.687 98.0633C104.007 97.3834 103.625 96.4614 103.625 95.5V73.75C103.625 72.7886 104.007 71.8666 104.687 71.1867C105.367 70.5069 106.289 70.125 107.25 70.125H111.498C114.381 70.1234 117.145 68.9773 119.183 66.9386L122.192 63.9371C122.87 63.259 123.789 62.8771 124.748 62.875H133.245C134.206 62.8752 135.128 63.2573 135.808 63.9371L138.809 66.9386C139.819 67.949 141.018 68.7504 142.338 69.2971C143.658 69.8439 145.073 70.1252 146.502 70.125H150.75C151.711 70.125 152.633 70.5069 153.313 71.1867C153.993 71.8666 154.375 72.7886 154.375 73.75V95.5ZM107.25 66.5C105.327 66.5 103.483 67.2638 102.123 68.6235C100.764 69.9831 100 71.8272 100 73.75V95.5C100 97.4228 100.764 99.2669 102.123 100.627C103.483 101.986 105.327 102.75 107.25 102.75H150.75C152.673 102.75 154.517 101.986 155.877 100.627C157.236 99.2669 158 97.4228 158 95.5V73.75C158 71.8272 157.236 69.9831 155.877 68.6235C154.517 67.2638 152.673 66.5 150.75 66.5H146.502C144.579 66.4996 142.735 65.7355 141.376 64.3758L138.374 61.3742C137.015 60.0145 135.171 59.2504 133.248 59.25H124.752C122.829 59.2504 120.985 60.0145 119.626 61.3742L116.624 64.3758C115.265 65.7355 113.421 66.4996 111.498 66.5H107.25Z" fill="#7B7B7B"/>
<path d="M129 91.875C126.596 91.875 124.291 90.9202 122.592 89.2207C120.892 87.5211 119.938 85.216 119.938 82.8125C119.938 80.409 120.892 78.1039 122.592 76.4043C124.291 74.7048 126.596 73.75 129 73.75C131.404 73.75 133.709 74.7048 135.408 76.4043C137.108 78.1039 138.062 80.409 138.062 82.8125C138.062 85.216 137.108 87.5211 135.408 89.2207C133.709 90.9202 131.404 91.875 129 91.875ZM129 95.5C132.365 95.5 135.592 94.1633 137.971 91.7839C140.351 89.4045 141.688 86.1774 141.688 82.8125C141.688 79.4476 140.351 76.2205 137.971 73.8411C135.592 71.4617 132.365 70.125 129 70.125C125.635 70.125 122.408 71.4617 120.029 73.8411C117.649 76.2205 116.312 79.4476 116.312 82.8125C116.312 86.1774 117.649 89.4045 120.029 91.7839C122.408 94.1633 125.635 95.5 129 95.5ZM110.875 75.5625C110.875 76.0432 110.684 76.5042 110.344 76.8441C110.004 77.184 109.543 77.375 109.062 77.375C108.582 77.375 108.121 77.184 107.781 76.8441C107.441 76.5042 107.25 76.0432 107.25 75.5625C107.25 75.0818 107.441 74.6208 107.781 74.2809C108.121 73.941 108.582 73.75 109.062 73.75C109.543 73.75 110.004 73.941 110.344 74.2809C110.684 74.6208 110.875 75.0818 110.875 75.5625Z" fill="#7B7B7B"/>
</svg>
